<svg width="70" height="70" viewBox="0 0 70 70" fill="none" xmlns="http://www.w3.org/2000/svg">
<rect width="70" height="70" rx="35" fill="url(#paint0_linear_313_1329)"/>
<g clip-path="url(#clip0_313_1329)">
<path d="M31.6078 10.1363C22.511 11.5138 15.0965 17.3828 11.8038 25.8151C9.29221 32.2472 9.62869 39.6014 12.7051 45.8298L13.4261 47.2792L11.6836 53.6154C10.7343 57.1008 9.96517 59.9754 10.0012 59.9994C10.0253 60.0234 12.9694 59.2808 16.5505 58.3466L23.0638 56.6456L24.3856 57.2686C31.2594 60.4786 39.1666 60.4426 45.9322 57.1608C49.0928 55.6276 51.9408 53.3878 54.26 50.621C58.3218 45.782 60.4128 39.278 59.9322 33.0138C59.2472 24.0903 54.0078 16.3288 46.0524 12.46C43.7932 11.3581 41.9066 10.7472 39.2628 10.2441C37.8328 9.98063 33.11 9.90876 31.6078 10.1363ZM38.686 14.3764C40.6328 14.7118 42.5074 15.3466 44.4302 16.3168C46.5812 17.4068 48.0352 18.4608 49.7176 20.1377C53.575 23.9825 55.594 28.6299 55.8102 34.0918C55.9786 38.6312 54.6926 42.9312 52.0008 46.764C50.8472 48.417 48.4078 50.7886 46.7134 51.9026C43.1684 54.2622 39.8276 55.3282 35.6576 55.436C31.4036 55.5558 28.2672 54.7532 24.1693 52.4654L23.6766 52.19L19.8792 53.1842C17.8003 53.7352 16.0338 54.1664 15.9737 54.1424C15.9136 54.1184 16.3222 52.4534 16.875 50.4412C17.4157 48.429 17.8724 46.7162 17.8724 46.6204C17.8724 46.5246 17.6681 46.1292 17.4037 45.722C14.1351 40.5596 13.378 33.8642 15.4089 28.043C17.4518 22.2218 21.9101 17.6344 27.7264 15.3945C29.3727 14.7597 31.043 14.3884 33.4946 14.101C34.3958 13.9932 37.352 14.1489 38.686 14.3764Z" fill="white"/>
<path d="M25.6236 23.3953C24.7464 23.6348 23.4125 25.2279 22.7876 26.785C22.5353 27.4198 22.5112 27.6953 22.5112 29.1805C22.5112 30.8214 22.5232 30.8814 22.9438 32.0432C24.1816 35.349 27.9309 39.9484 31.6442 42.7272C33.627 44.2124 35.3816 45.0868 38.3858 46.093C41.0176 46.9674 42.748 46.9434 44.6706 45.9972C46.0526 45.3144 47.05 44.3202 47.3626 43.3142C47.663 42.3678 47.759 40.9306 47.5428 40.667C47.2062 40.2598 42.087 37.8642 41.5582 37.8642C41.1496 37.8642 41.1738 37.8404 39.972 39.3496C38.8544 40.739 38.494 41.0982 38.1694 41.0982C37.6888 41.0982 35.5858 40.0682 34.324 39.2418C33.687 38.8106 32.7138 38.044 32.173 37.5408C30.5866 36.0556 28.8082 33.6242 28.8082 32.9414C28.8082 32.7378 29.0485 32.3666 29.5412 31.8036C30.3104 30.9292 30.851 30.019 30.851 29.5997C30.851 29.3601 29.1446 25.1081 28.688 24.2097C28.5678 23.9822 28.3756 23.7067 28.2554 23.5989C27.967 23.3473 26.2846 23.2156 25.6236 23.3953Z" fill="white"/>
</g>
<defs>
<linearGradient id="paint0_linear_313_1329" x1="35" y1="0" x2="35" y2="70" gradientUnits="userSpaceOnUse">
<stop stop-color="#22CD5B"/>
<stop offset="1" stop-color="#039834"/>
</linearGradient>
<clipPath id="clip0_313_1329">
<rect width="50" height="50" fill="white" transform="translate(10 10)"/>
</clipPath>
</defs>
</svg>
